<mxfile host="app.diagrams.net" modified="2024-05-02T02:29:56.963Z" agent="Mozilla/5.0 (Windows NT 10.0; Win64; x64; rv:125.0) Gecko/20100101 Firefox/125.0" etag="hQx_-Vf_RiVJo-FA0EiR" version="24.2.5" type="device">
  <diagram name="Page-1" id="ixJaoR78EGxp6nqWL-x5">
    <mxGraphModel dx="1323" dy="690" grid="1" gridSize="10" guides="1" tooltips="1" connect="1" arrows="1" fold="1" page="1" pageScale="1" pageWidth="850" pageHeight="1100" math="0" shadow="0">
      <root>
        <mxCell id="0" />
        <mxCell id="1" parent="0" />
        <mxCell id="uKOaFqsVUm9_6rwKDwEd-10" value="" style="whiteSpace=wrap;html=1;aspect=fixed;" vertex="1" parent="1">
          <mxGeometry x="163" y="109" width="570" height="570" as="geometry" />
        </mxCell>
        <mxCell id="Hyh_rJkvXiW8YJRngygw-1" value="admin" style="shape=umlActor;verticalLabelPosition=bottom;verticalAlign=top;html=1;outlineConnect=0;" parent="1" vertex="1">
          <mxGeometry x="200" y="280" width="30" height="60" as="geometry" />
        </mxCell>
        <mxCell id="Hyh_rJkvXiW8YJRngygw-2" value="Pelanggan" style="shape=umlActor;verticalLabelPosition=bottom;verticalAlign=top;html=1;outlineConnect=0;" parent="1" vertex="1">
          <mxGeometry x="660" y="290" width="30" height="60" as="geometry" />
        </mxCell>
        <mxCell id="Hyh_rJkvXiW8YJRngygw-3" value="" style="whiteSpace=wrap;html=1;aspect=fixed;" parent="1" vertex="1">
          <mxGeometry x="250" y="200" width="380" height="380" as="geometry" />
        </mxCell>
        <mxCell id="Hyh_rJkvXiW8YJRngygw-4" value="Aplikasi Booking Travel" style="text;html=1;align=center;verticalAlign=middle;whiteSpace=wrap;rounded=0;" parent="1" vertex="1">
          <mxGeometry x="375" y="200" width="130" height="30" as="geometry" />
        </mxCell>
        <mxCell id="Hyh_rJkvXiW8YJRngygw-5" value="Membuat Booking Perjalanan" style="ellipse;whiteSpace=wrap;html=1;" parent="1" vertex="1">
          <mxGeometry x="400" y="270" width="115" height="50" as="geometry" />
        </mxCell>
        <mxCell id="Hyh_rJkvXiW8YJRngygw-7" value="Login" style="ellipse;whiteSpace=wrap;html=1;" parent="1" vertex="1">
          <mxGeometry x="390" y="230" width="70" height="30" as="geometry" />
        </mxCell>
        <mxCell id="Hyh_rJkvXiW8YJRngygw-8" value="Mengelola Perjalanan Booking" style="ellipse;whiteSpace=wrap;html=1;" parent="1" vertex="1">
          <mxGeometry x="460" y="320" width="115" height="50" as="geometry" />
        </mxCell>
        <mxCell id="Hyh_rJkvXiW8YJRngygw-9" value="Mengelola Data Pelanggan" style="ellipse;whiteSpace=wrap;html=1;" parent="1" vertex="1">
          <mxGeometry x="505" y="370" width="115" height="50" as="geometry" />
        </mxCell>
        <mxCell id="Hyh_rJkvXiW8YJRngygw-10" value="Mengelola Data Armada" style="ellipse;whiteSpace=wrap;html=1;" parent="1" vertex="1">
          <mxGeometry x="360" y="380" width="115" height="50" as="geometry" />
        </mxCell>
        <mxCell id="Hyh_rJkvXiW8YJRngygw-11" value="Logout" style="ellipse;whiteSpace=wrap;html=1;" parent="1" vertex="1">
          <mxGeometry x="310" y="510" width="115" height="50" as="geometry" />
        </mxCell>
        <mxCell id="Hyh_rJkvXiW8YJRngygw-12" value="" style="endArrow=classic;html=1;rounded=0;entryX=0;entryY=0.5;entryDx=0;entryDy=0;" parent="1" target="Hyh_rJkvXiW8YJRngygw-7" edge="1">
          <mxGeometry width="50" height="50" relative="1" as="geometry">
            <mxPoint x="240" y="290" as="sourcePoint" />
            <mxPoint x="490" y="330" as="targetPoint" />
          </mxGeometry>
        </mxCell>
        <mxCell id="Hyh_rJkvXiW8YJRngygw-13" value="" style="endArrow=classic;html=1;rounded=0;entryX=0;entryY=0.5;entryDx=0;entryDy=0;" parent="1" target="Hyh_rJkvXiW8YJRngygw-5" edge="1">
          <mxGeometry width="50" height="50" relative="1" as="geometry">
            <mxPoint x="250" y="300" as="sourcePoint" />
            <mxPoint x="415" y="265" as="targetPoint" />
          </mxGeometry>
        </mxCell>
        <mxCell id="Hyh_rJkvXiW8YJRngygw-14" value="" style="endArrow=classic;html=1;rounded=0;" parent="1" target="Hyh_rJkvXiW8YJRngygw-8" edge="1">
          <mxGeometry width="50" height="50" relative="1" as="geometry">
            <mxPoint x="240" y="320" as="sourcePoint" />
            <mxPoint x="393" y="315" as="targetPoint" />
          </mxGeometry>
        </mxCell>
        <mxCell id="Hyh_rJkvXiW8YJRngygw-15" value="" style="endArrow=classic;html=1;rounded=0;entryX=-0.008;entryY=0.409;entryDx=0;entryDy=0;entryPerimeter=0;" parent="1" target="Hyh_rJkvXiW8YJRngygw-9" edge="1">
          <mxGeometry width="50" height="50" relative="1" as="geometry">
            <mxPoint x="240" y="340" as="sourcePoint" />
            <mxPoint x="399" y="364" as="targetPoint" />
          </mxGeometry>
        </mxCell>
        <mxCell id="Hyh_rJkvXiW8YJRngygw-16" value="" style="endArrow=classic;html=1;rounded=0;entryX=0;entryY=0.5;entryDx=0;entryDy=0;" parent="1" target="Hyh_rJkvXiW8YJRngygw-10" edge="1">
          <mxGeometry width="50" height="50" relative="1" as="geometry">
            <mxPoint x="240" y="350" as="sourcePoint" />
            <mxPoint x="392" y="430" as="targetPoint" />
          </mxGeometry>
        </mxCell>
        <mxCell id="Hyh_rJkvXiW8YJRngygw-17" value="" style="endArrow=classic;html=1;rounded=0;entryX=0.035;entryY=0.337;entryDx=0;entryDy=0;entryPerimeter=0;" parent="1" target="Hyh_rJkvXiW8YJRngygw-11" edge="1">
          <mxGeometry width="50" height="50" relative="1" as="geometry">
            <mxPoint x="230" y="370" as="sourcePoint" />
            <mxPoint x="363" y="492.5" as="targetPoint" />
          </mxGeometry>
        </mxCell>
        <mxCell id="Hyh_rJkvXiW8YJRngygw-18" value="" style="endArrow=classic;html=1;rounded=0;entryX=1;entryY=0.5;entryDx=0;entryDy=0;" parent="1" target="Hyh_rJkvXiW8YJRngygw-5" edge="1">
          <mxGeometry width="50" height="50" relative="1" as="geometry">
            <mxPoint x="650" y="320" as="sourcePoint" />
            <mxPoint x="393" y="495" as="targetPoint" />
          </mxGeometry>
        </mxCell>
        <mxCell id="uKOaFqsVUm9_6rwKDwEd-2" value="Mengelola Tujuan Travel" style="ellipse;whiteSpace=wrap;html=1;" vertex="1" parent="1">
          <mxGeometry x="429" y="430" width="115" height="50" as="geometry" />
        </mxCell>
        <mxCell id="uKOaFqsVUm9_6rwKDwEd-4" value="Mencari Rute Terdekat" style="ellipse;whiteSpace=wrap;html=1;" vertex="1" parent="1">
          <mxGeometry x="450" y="490" width="115" height="50" as="geometry" />
        </mxCell>
        <mxCell id="uKOaFqsVUm9_6rwKDwEd-6" value="" style="endArrow=classic;html=1;rounded=0;entryX=0;entryY=0.5;entryDx=0;entryDy=0;" edge="1" parent="1" target="uKOaFqsVUm9_6rwKDwEd-2">
          <mxGeometry width="50" height="50" relative="1" as="geometry">
            <mxPoint x="240" y="360" as="sourcePoint" />
            <mxPoint x="370" y="415" as="targetPoint" />
          </mxGeometry>
        </mxCell>
        <mxCell id="uKOaFqsVUm9_6rwKDwEd-7" value="" style="endArrow=classic;html=1;rounded=0;entryX=0;entryY=0.5;entryDx=0;entryDy=0;" edge="1" parent="1" target="uKOaFqsVUm9_6rwKDwEd-4">
          <mxGeometry width="50" height="50" relative="1" as="geometry">
            <mxPoint x="240" y="370" as="sourcePoint" />
            <mxPoint x="324" y="537" as="targetPoint" />
          </mxGeometry>
        </mxCell>
        <mxCell id="uKOaFqsVUm9_6rwKDwEd-8" value="" style="endArrow=classic;html=1;rounded=0;entryX=1;entryY=0.5;entryDx=0;entryDy=0;" edge="1" parent="1" target="uKOaFqsVUm9_6rwKDwEd-4">
          <mxGeometry width="50" height="50" relative="1" as="geometry">
            <mxPoint x="660" y="380" as="sourcePoint" />
            <mxPoint x="525" y="305" as="targetPoint" />
          </mxGeometry>
        </mxCell>
      </root>
    </mxGraphModel>
  </diagram>
</mxfile>
